<?xml version="1.0" encoding="utf-8"?>
<svg width="12" height="16" viewBox="0 0 12 16" fill="none" stroke="none" version="1.1" xmlns:xlink="http://www.w3.org/1999/xlink" xmlns="http://www.w3.org/2000/svg">
  <defs>
    <path id="path_1" d="M12 0L12 0L12 16L0 16L0 0L12 0Z" />
    <rect id="rect_2" x="0" y="0" width="12" height="16" />
    <clipPath id="clip_path_3">
      <use xlink:href="#rect_2" />
    </clipPath>
  </defs>
  <g id="Frame" opacity="1" clip-path="url(#clip_path_3)">
    <g>
      <use xlink:href="#path_1" style="mix-blend-mode:normal;" />
      <g>
        <path id="Path 1" d="M8.9883 4.57644C8.9883 4.90039 8.68944 5.22329 8.09172 5.54514L1.96008 8.84679C1.34487 9.17805 0.864391 9.24043 0.518635 9.03391C0.172878 8.82739 0 8.37477 0 7.67604L0 1.47683C0 0.778101 0.172878 0.325479 0.518635 0.11896C0.864392 -0.0875583 1.34487 -0.0251846 1.96008 0.306081L8.09172 3.60773C8.68944 3.92958 8.9883 4.25248 8.9883 4.57644L8.9883 4.57644Z" style="fill:#000000;fill-rule:evenodd;fill-opacity:0.498;mix-blend-mode:normal;" transform="translate(1 3.42)" />
        <path id="Vector" d="M3.43418 10.7188L9.56582 7.41716C11.4625 6.39589 11.4625 4.74008 9.56582 3.71881L3.43418 0.417158C1.53754 -0.604113 0 0.314248 0 2.46837L0 8.66759C0 10.8217 1.53754 11.7401 3.43418 10.7188L3.43418 10.7188ZM9.9883 5.56798C9.9883 5.89193 9.68944 6.21484 9.09172 6.53669L2.96008 9.83834C2.34487 10.1696 1.86439 10.232 1.51864 10.0255C1.17288 9.81894 1 9.36632 1 8.66759L1 2.46837C1 1.76965 1.17288 1.31703 1.51864 1.11051C1.86439 0.90399 2.34487 0.966364 2.96008 1.29763L9.09172 4.59928C9.68944 4.92113 9.9883 5.24403 9.9883 5.56798L9.9883 5.56798Z" style="fill:#FFFFFF;fill-rule:evenodd;mix-blend-mode:normal;" transform="translate(0 2.432)" />
      </g>
    </g>
  </g>
</svg>